<?xml version="1.0" encoding="utf-8"?>
<!-- Generator: Adobe Illustrator 26.0.3, SVG Export Plug-In . SVG Version: 6.00 Build 0)  -->
<svg version="1.1" id="CBC" xmlns="http://www.w3.org/2000/svg" xmlns:xlink="http://www.w3.org/1999/xlink" x="0px" y="0px"
     viewBox="0 0 512 512" style="enable-background:new 0 0 512 512;" xml:space="preserve">

<style type="text/css">
    .st0{fill:#0091DA;}
    .st1{fill:#1D428A;}
    .st2{fill:#7F35B2;}
    @media (prefers-color-scheme: dark) {
      .st0 { fill: #0091DA; }
      .st1 { fill: #0091DA; }
      .st2 { fill: #0091DA; }
    }
</style>
<g id="_x35_12x512">
    <path class="st0" d="M34,266.4V41L13.2,20.9v245.5c1.1,36.9,13.5,72.5,35.5,102.1c21.5,29.8,47.1,56.4,76.2,79
        c30.7,24.4,63.5,46,98.1,64.6v-23.8C170.1,458.4,34,371.6,34,266.4z M444.5,41v225.4c0,9-1,18-2.9,26.9c5.2,5.7,9.8,11.9,13.8,18.6
        c0.8,0.2,1.7,0.5,2.5,0.7c4.8-14.9,7.3-30.5,7.4-46.1V20.9L444.5,41z"/>
    <path class="st1" d="M204.5,406.4c-9.9-6.9-20.4-14.6-30.7-23c-26.4-20.1-48.9-44.8-66.5-73L223,243.6l12.4-7.1l0.3-0.2l17-9.8
        l0.3-0.2l2.4-1.4l129.3-74.7V259c7.1,1.8,14.1,4.4,20.8,7.5v-0.2V59.7H72.9v206.7c0,40,31.2,87.4,87.8,133.2
        c14.5,11.8,29.2,22.2,42.5,31c-0.2-2.3-0.3-4.6-0.3-7C202.9,417.8,203.5,412.1,204.5,406.4L204.5,406.4z M93.7,266.4V80.5h291.1
        v45.8l-70.4,40.6l-58.9,34l-6,3.5L223,219.7l-2.5,1.4l-0.3,0.2L98.5,291.6C95.4,283.5,93.8,275,93.7,266.4L93.7,266.4z"/>
    <path class="st2" d="M440.2,0H38.3l21.4,20.8h359L440.2,0z M498.8,413.8c0-18.1-7.1-35.4-19.8-48.3c-12.7-12.9-29.9-20.3-48-20.6
        c-0.5-1.4-1-2.7-1.6-4.1c-1-2.3-2-4.6-3.2-6.8c-5-9.6-12-18.1-20.4-24.9c-11.5-9.3-25.4-15.2-40-17c-14.7-1.8-29.5,0.5-43,6.6
        c-13.4,6.2-24.9,15.9-33,28.2c-8.2,12.3-12.8,26.6-13.2,41.4c-11.1,4.3-20.5,11.9-27.2,21.7c-6.7,9.8-10.2,21.4-10.2,33.3
        c0,1.7,0.1,3.3,0.2,5c0.6,7.2,2.5,14.2,5.7,20.7c6.1,12.4,16.2,22.4,28.8,28.1c7.7,3.5,16,5.3,24.4,5.3h131.6
        c18.3,0,35.8-7.3,48.7-20.2C491.5,449.6,498.7,432.1,498.8,413.8L498.8,413.8z M429.9,462H298.3c-9.4,0-18.5-3.5-25.5-9.7
        c-7-6.3-11.5-14.9-12.6-24.2c-1.1-9.3,1.3-18.7,6.7-26.4c5.4-7.7,13.4-13.1,22.6-15.3l8.6-2l-0.6-8.8c-0.1-1.7-0.2-3-0.2-4.3
        c0-15.6,6.2-30.5,17.2-41.5s25.9-17.2,41.5-17.2c4.4,0,8.9,0.5,13.2,1.5c7.7,1.7,15,5,21.4,9.7c6.4,4.6,11.8,10.6,15.8,17.4
        c2.8,4.8,5,10,6.4,15.4c0.1,0.6,0.3,1.1,0.4,1.7l2.1,9.1l9.2-1c1.8-0.2,3.6-0.3,5.4-0.3c0.5,0,1,0,1.6,0
        c12.6,0.4,24.6,5.7,33.3,14.9c8.7,9.1,13.5,21.3,13.3,34c-0.2,12.6-5.4,24.7-14.4,33.5C454.7,457,442.6,462,429.9,462L429.9,462z"
        />
</g>
</svg>
